<svg xmlns="http://www.w3.org/2000/svg" xmlns:xlink="http://www.w3.org/1999/xlink" width="18" height="20" viewBox="0 0 18 20">
  <defs>
    <path id="calendar-a" d="M16,2 L16,4 L8,4 L8,2 L6,2 L6,4 L5,4 C3.89,4 3.01,4.9 3.01,6 L3,20 C3,21.1 3.89,22 5,22 L19,22 C20.1,22 21,21.1 21,20 L21,6 C21,4.9 20.1,4 19,4 L18,4 L18,2 L16,2 Z M19,20 L5,20 L5,9 L19,9 L19,20 Z"/>
  </defs>
  <g fill="none" fill-rule="evenodd" transform="translate(-3 -2)">
    <polygon points="0 0 24 0 24 24 0 24"/>
    <mask id="calendar-b" fill="#fff">
      <use xlink:href="#calendar-a"/>
    </mask>
    <use fill="#000" fill-rule="nonzero" xlink:href="#calendar-a"/>
    <g fill="#137B3E" mask="url(#calendar-b)">
      <rect width="24" height="24"/>
    </g>
  </g>
</svg>
