<svg xmlns="http://www.w3.org/2000/svg" xmlns:xlink="http://www.w3.org/1999/xlink" width="24" height="24" viewBox="0 0 24 24">
    <defs>
        <path id="aebae056-5127-4f9f-9086-836dfed381fb" d="M18 4h-4V2c0-1.11-.89-2-2-2H8C6.89 0 6 .89 6 2v2H2C.89 4 .01 4.89.01 6L0 17c0 1.11.89 2 2 2h16c1.11 0 2-.89 2-2V6c0-1.11-.89-2-2-2zm-6 0H8V2h4v2z"/>
        <path id="da183fc2-327f-46d8-80f1-a4700d68d504" d="M3 7.467V5.33l2 .003v2.134h2v-3.2h1L4 0 0 4.267h1v3.2z"/>
    </defs>
    <g fill="none" fill-rule="evenodd">
        <path d="M0 0h24v24H0z"/>
        <g transform="translate(2 2)">
            <mask id="085c0dd8-7e67-486f-9b09-a6925ba448a3" fill="#fff">
                <use xlink:href="#aebae056-5127-4f9f-9086-836dfed381fb"/>
            </mask>
            <use fill="#000" fill-rule="nonzero" xlink:href="#aebae056-5127-4f9f-9086-836dfed381fb"/>
            <g fill="#FFF" class="fill" mask="url(#085c0dd8-7e67-486f-9b09-a6925ba448a3)">
                <path d="M-3-3h26v26H-3z"/>
            </g>
        </g>
        <g transform="translate(8 10.267)">
            <mask id="df555a75-e940-40b2-aba0-9b7c72351915" fill="#fff">
                <use xlink:href="#da183fc2-327f-46d8-80f1-a4700d68d504"/>
            </mask>
            <use fill="#000" fill-rule="nonzero" xlink:href="#da183fc2-327f-46d8-80f1-a4700d68d504"/>
            <g fill="#555" mask="url(#df555a75-e940-40b2-aba0-9b7c72351915)">
                <path d="M-4-4.267h16v16H-4z"/>
            </g>
        </g>
    </g>
</svg>
