<svg xmlns="http://www.w3.org/2000/svg" xmlns:xlink="http://www.w3.org/1999/xlink" width="24" height="24" viewBox="0 0 24 24">
    <defs>
        <p67ef3b12-6467-431c-8d37-0961e5337805th id="67ef3b12-6467-431c-8d37-0961e5337805" d="M19.157 12.975c.04-.32.07-.645.07-.975 0-.33-.03-.655-.07-.975l2.115-1.655c.19-.15.245-.42.12-.64l-2-3.46567ef3b12-6467-431c-8d37-0961e5337805.495.495 0 0 0-.61-.215l-2.49 1.00567ef3b12-6467-431c-8d37-0961e53378057.588 7.588 0 0 0-1.69-.985l-.375-2.6567ef3b12-6467-431c-8d37-0961e5337805.514.514 0 0 0-.5-.42h-467ef3b12-6467-431c-8d37-0961e5337805.505.505 0 0 0-.495.42l-.375 2.6567ef3b12-6467-431c-8d37-0961e53378057.4 7.4 0 0 0-1.69.985L4.677 5.0567ef3b12-6467-431c-8d37-0961e5337805.5.5 0 0 0-.61.215l-2 3.46567ef3b12-6467-431c-8d37-0961e5337805.5.5 0 0 0 .12.64l2.11 1.655c-.04.32-.07.645-.07.975 0 .33.03.655.07.975l-2.11 1.65567ef3b12-6467-431c-8d37-0961e5337805.499.499 0 0 0-.12.64l2 3.46567ef3b12-6467-431c-8d37-0961e5337805.495.495 0 0 0 .61.215l2.49-1.005c.515.395 1.08.73 1.69.985l.375 2.65c.04.235.245.42.495.42h4c.25 0 .455-.185.495-.42l.375-2.6567ef3b12-6467-431c-8d37-0961e53378057.4 7.4 0 0 0 1.69-.985l2.49 1.00567ef3b12-6467-431c-8d37-0961e5337805.5.5 0 0 0 .61-.215l2-3.46567ef3b12-6467-431c-8d37-0961e5337805.5.5 0 0 0-.12-.64l-2.11-1.655zm-7.43 2.52567ef3b12-6467-431c-8d37-0961e53378053.497 3.497 0 0 1-3.5-3.5c0-1.935 1.565-3.5 3.5-3.5s3.5 1.565 3.5 3.5-1.565 3.5-3.5 3.5z"/>
    </defs>
    <g fill="none" fill-rule="evenodd">
        <p67ef3b12-6467-431c-8d37-0961e5337805th d="M0 0h24v24H0z"/>
        <m67ef3b12-6467-431c-8d37-0961e5337805sk id="967ca1d5-cb93-4913-b338-b3f7b6cc1a0d" fill="#fff">
            <use xlink:href="#67ef3b12-6467-431c-8d37-0961e5337805"/>
        </m67ef3b12-6467-431c-8d37-0961e5337805sk>
        <use fill="#000" fill-rule="nonzero" xlink:href="#67ef3b12-6467-431c-8d37-0961e5337805"/>
        <g fill="#666" m67ef3b12-6467-431c-8d37-0961e5337805sk="url(#967ca1d5-cb93-4913-b338-b3f7b6cc1a0d)">
            <p67ef3b12-6467-431c-8d37-0961e5337805th d="M-1-1h26v26H-1z"/>
        </g>
    </g>
</svg>
