<svg xmlns="http://www.w3.org/2000/svg" xmlns:xlink="http://www.w3.org/1999/xlink" width="11" height="11" viewBox="0 0 11 11">
  <defs>
    <path id="74893723-cdab-477d-b4e1-016904192904" d="M5.625,6 C5.00367966,6 4.5,5.49632034 4.5,4.875 C4.5,4.25367966 5.00367966,3.75 5.625,3.75 C6.24632034,3.75 6.75,4.25367966 6.75,4.875 C6.75,5.49632034 6.24632034,6 5.625,6 Z M5.625,9.75 C5.00367966,9.75 4.5,9.24632034 4.5,8.625 C4.5,8.00367966 5.00367966,7.5 5.625,7.5 C6.24632034,7.5 6.75,8.00367966 6.75,8.625 C6.75,9.24632034 6.24632034,9.75 5.625,9.75 Z M5.625,13.5 C5.00367966,13.5 4.5,12.9963203 4.5,12.375 C4.5,11.7536797 5.00367966,11.25 5.625,11.25 C6.24632034,11.25 6.75,11.7536797 6.75,12.375 C6.75,12.9963203 6.24632034,13.5 5.625,13.5 Z M9.375,6 C8.75367966,6 8.25,5.49632034 8.25,4.875 C8.25,4.25367966 8.75367966,3.75 9.375,3.75 C9.99632034,3.75 10.5,4.25367966 10.5,4.875 C10.5,5.49632034 9.99632034,6 9.375,6 Z M9.375,9.75 C8.75367966,9.75 8.25,9.24632034 8.25,8.625 C8.25,8.00367966 8.75367966,7.5 9.375,7.5 C9.99632034,7.5 10.5,8.00367966 10.5,8.625 C10.5,9.24632034 9.99632034,9.75 9.375,9.75 Z M9.375,13.5 C8.75367966,13.5 8.25,12.9963203 8.25,12.375 C8.25,11.7536797 8.75367966,11.25 9.375,11.25 C9.99632034,11.25 10.5,11.7536797 10.5,12.375 C10.5,12.9963203 9.99632034,13.5 9.375,13.5 Z M13.125,6 C12.5036797,6 12,5.49632034 12,4.875 C12,4.25367966 12.5036797,3.75 13.125,3.75 C13.7463203,3.75 14.25,4.25367966 14.25,4.875 C14.25,5.49632034 13.7463203,6 13.125,6 Z M13.125,9.75 C12.5036797,9.75 12,9.24632034 12,8.625 C12,8.00367966 12.5036797,7.5 13.125,7.5 C13.7463203,7.5 14.25,8.00367966 14.25,8.625 C14.25,9.24632034 13.7463203,9.75 13.125,9.75 Z M13.125,13.5 C12.5036797,13.5 12,12.9963203 12,12.375 C12,11.7536797 12.5036797,11.25 13.125,11.25 C13.7463203,11.25 14.25,11.7536797 14.25,12.375 C14.25,12.9963203 13.7463203,13.5 13.125,13.5 Z"/>
  </defs>
  <g fill="none" fill-rule="evenodd" opacity=".3" transform="translate(-4 -3)">
    <polygon points="0 0 18 0 18 18 0 18"/>
    <mask id="36455345-a9e3-4038-8686-754b3587602f" fill="#fff">
      <use xlink:href="#74893723-cdab-477d-b4e1-016904192904"/>
    </mask>
    <use fill="#000" xlink:href="#74893723-cdab-477d-b4e1-016904192904"/>
    <g fill="#000" mask="url(#36455345-a9e3-4038-8686-754b3587602f)">
      <rect width="20" height="20" transform="translate(-.75 -.75)"/>
    </g>
  </g>
</svg>
