<svg xmlns="http://www.w3.org/2000/svg" xmlns:xlink="http://www.w3.org/1999/xlink" width="20" height="20" viewBox="0 0 20 20">
  <defs>
    <path id="8e2f619e-0633-4106-ba09-e5bc7fbfab9a" d="M11,11 L11,6 L13,6 L13,11.5 L13,13 L6,13 L6,11 L11,11 Z M12,2 C17.52,2 22,6.48 22,12 C22,17.52 17.52,22 12,22 C6.48,22 2,17.52 2,12 L4,12 C4,16.41 7.59,20 12,20 C16.41,20 20,16.41 20,12 C20,7.59 16.41,4 12,4 L12,2 Z"/>
  </defs>
  <g fill="none" fill-rule="evenodd" transform="translate(-2 -2)">
    <polygon points="0 0 24 0 24 24 0 24"/>
    <mask id="2c165c13-051f-4f4c-ac6e-d38fd598efc4" fill="#fff">
      <use xlink:href="#8e2f619e-0633-4106-ba09-e5bc7fbfab9a"/>
    </mask>
    <use fill="#000" xlink:href="#8e2f619e-0633-4106-ba09-e5bc7fbfab9a"/>
    <g fill="#DBB77D" mask="url(#2c165c13-051f-4f4c-ac6e-d38fd598efc4)">
      <rect width="24" height="24"/>
    </g>
  </g>
</svg>
