<svg xmlns="http://www.w3.org/2000/svg" xmlns:xlink="http://www.w3.org/1999/xlink" width="24" height="24" viewBox="0 0 24 24">
    <defs>
        <path id="f7746766-990e-4df1-b7e4-f6168015f5b2" d="M19.157 12.975c.04-.32.07-.645.07-.975 0-.33-.03-.655-.07-.975l2.115-1.655c.19-.15.245-.42.12-.64l-2-3.465a.495.495 0 0 0-.61-.215l-2.49 1.005a7.588 7.588 0 0 0-1.69-.985l-.375-2.65a.514.514 0 0 0-.5-.42h-4a.505.505 0 0 0-.495.42l-.375 2.65a7.4 7.4 0 0 0-1.69.985L4.677 5.05a.5.5 0 0 0-.61.215l-2 3.465a.5.5 0 0 0 .12.64l2.11 1.655c-.04.32-.07.645-.07.975 0 .33.03.655.07.975l-2.11 1.655a.499.499 0 0 0-.12.64l2 3.465a.495.495 0 0 0 .61.215l2.49-1.005c.515.395 1.08.73 1.69.985l.375 2.65c.04.235.245.42.495.42h4c.25 0 .455-.185.495-.42l.375-2.65a7.4 7.4 0 0 0 1.69-.985l2.49 1.005a.5.5 0 0 0 .61-.215l2-3.465a.5.5 0 0 0-.12-.64l-2.11-1.655zm-7.43 2.525a3.497 3.497 0 0 1-3.5-3.5c0-1.935 1.565-3.5 3.5-3.5s3.5 1.565 3.5 3.5-1.565 3.5-3.5 3.5z"/>
    </defs>
    <g fill="none" fill-rule="evenodd">
        <path d="M0 0h24v24H0z"/>
        <mask id="17e105a5-cfbc-4953-a6ad-822d7f1ebd46" fill="#fff">
            <use xlink:href="#f7746766-990e-4df1-b7e4-f6168015f5b2"/>
        </mask>
        <use fill="#fff" fill-rule="nonzero" xlink:href="#f7746766-990e-4df1-b7e4-f6168015f5b2"/>
        <g fill="#fff" mask="url(#17e105a5-cfbc-4953-a6ad-822d7f1ebd46)">
            <path d="M-1-1h26v26H-1z"/>
        </g>
    </g>
</svg>
