<svg xmlns="http://www.w3.org/2000/svg" xmlns:xlink="http://www.w3.org/1999/xlink" width="16" height="20" viewBox="0 0 16 20">
    <defs>
        <path id="6756ab6e-2f3a-4ec6-b361-50b4bc186b88" d="M14 2.18V8h5.82a2 2 0 0 1 .18.828V20a2 2 0 0 1-2 2H6a2 2 0 0 1-2-2V4a2 2 0 0 1 2-2h7.172a2 2 0 0 1 .828.18zm.586.406l4.828 4.828-4.828-4.828zM13.25 17H7v2h6.25v-2zM17 14H7v2h10v-2zM7 11v2h10v-2H7z"/>
    </defs>
    <use class="fill" fill="white" fill-rule="evenodd" transform="translate(-4 -2)" xlink:href="#6756ab6e-2f3a-4ec6-b361-50b4bc186b88"/>
</svg>
