<svg xmlns="http://www.w3.org/2000/svg" xmlns:xlink="http://www.w3.org/1999/xlink" width="24" height="24" viewBox="0 0 24 24">
    <defs>
        <path id="b5b8ced4-d99a-4c32-8b5c-6dc94643b947" d="M12 1C5.928 1 1 5.928 1 12s4.928 11 11 11 11-4.928 11-11S18.072 1 12 1zm0 3.3c1.826 0 3.3 1.474 3.3 3.3 0 1.826-1.474 3.3-3.3 3.3a3.296 3.296 0 0 1-3.3-3.3c0-1.826 1.474-3.3 3.3-3.3zm0 15.62a7.92 7.92 0 0 1-6.6-3.542c.033-2.189 4.4-3.388 6.6-3.388 2.189 0 6.567 1.199 6.6 3.388A7.92 7.92 0 0 1 12 19.92z"/>
    </defs>
    <g fill="none" fill-rule="evenodd">
        <path d="M0 0h24v24H0z"/>
        <mask id="c239cccd-2418-4bd4-8a1e-f3dc0bdf27c5" fill="#fff">
            <use xlink:href="#b5b8ced4-d99a-4c32-8b5c-6dc94643b947"/>
        </mask>
        <use fill="#fff" fill-rule="nonzero" xlink:href="#b5b8ced4-d99a-4c32-8b5c-6dc94643b947"/>
        <g fill="#fff" mask="url(#c239cccd-2418-4bd4-8a1e-f3dc0bdf27c5)">
            <path d="M-1-1h26v26H-1z"/>
        </g>
    </g>
</svg>
